<?xml version="1.0" encoding="UTF-8"?>
<!DOCTYPE svg PUBLIC "-//W3C//DTD SVG 1.1//EN" "http://www.w3.org/Graphics/SVG/1.1/DTD/svg11.dtd">
<!-- Creator: CorelDRAW -->
<svg xmlns="http://www.w3.org/2000/svg" xml:space="preserve" width="33.9463mm" height="39.3016mm" version="1.1" style="shape-rendering:geometricPrecision; text-rendering:geometricPrecision; image-rendering:optimizeQuality; fill-rule:evenodd; clip-rule:evenodd"
viewBox="0 0 98.85 114.45"
 xmlns:xlink="http://www.w3.org/1999/xlink"
 xmlns:xodm="http://www.corel.com/coreldraw/odm/2003">
 <defs>
  <style type="text/css">
   <![CDATA[
    .fil0 {fill:#0074BE}
    .fil1 {fill:#0088C9}
    .fil2 {fill:#FEFEFE}
   ]]>
  </style>
 </defs>
 <g id="Camada_x0020_1">
  <metadata id="CorelCorpID_0Corel-Layer"/>
  <path class="fil0" d="M50.35 114.43c0.46,0 1.49,-0.4 1.99,-0.55l17.85 -5.16c1.33,-0.41 2.65,-0.77 3.99,-1.16 2.65,-0.77 5.3,-1.55 7.98,-2.32l8.43 -2.44c0.43,-0.13 0.69,-0.04 0.7,-0.58 0.01,-0.3 0.03,-0.37 0.05,-0.58l0.39 -4.69c0.01,-0.34 0.09,-0.84 0.12,-1.15 0.05,-0.47 0.03,-0.78 0.09,-1.24 0.18,-1.42 0.26,-3.18 0.42,-4.67l0.2 -2.34c0.01,-0.36 0.05,-0.8 0.1,-1.17 0.17,-1.18 0.14,-2.4 0.3,-3.58 0.15,-1.16 0.22,-2.41 0.3,-3.57l0.43 -4.72c0.12,-1.16 0.13,-2.32 0.3,-3.51l1.74 -20c0.09,-1.17 0.15,-2.4 0.3,-3.57l0.4 -4.75c0.11,-1.93 0.41,-3.97 0.51,-5.91 0.06,-1.17 0.27,-2.36 0.32,-3.5 0.05,-1.15 0.23,-2.33 0.31,-3.5 0.09,-1.17 0.15,-2.4 0.3,-3.57 0.05,-0.41 0.05,-0.78 0.09,-1.19l0.89 -10.24 -10.37 -13.54c-29.63,-2.39 -59.49,-0.85 -88.49,1.18 0,0.78 0.17,1.35 0.19,2.39l0.31 3.5c0.05,0.45 0.04,0.81 0.08,1.26l0.79 9.51c0.12,0.78 0.09,1.56 0.2,2.34l0.28 3.6c0.01,0.3 0.07,0.89 0.11,1.16l0.2 2.4c0.12,1.61 0.31,3.19 0.38,4.77 0.08,1.57 0.35,3.24 0.38,4.77 0.02,0.76 0.17,1.59 0.19,2.35 0.03,1.07 0.36,4.62 0.5,5.92 0.05,0.45 0.04,0.81 0.08,1.26l1.46 17.8c0.06,1.14 0.23,2.45 0.31,3.57l0.19 2.41c0.04,1.64 0.33,3.2 0.38,4.83l0.58 7.12c0.09,1.16 0.26,2.41 0.31,3.57l0.19 2.35c0.04,0.79 0.17,1.63 0.19,2.41 0.01,0.29 0.04,0.87 0.09,1.18 0.24,1.6 0.19,3.17 0.4,4.75 0.05,0.39 0.06,0.8 0.08,1.19l0.31 3.57c0.06,0.42 0.23,0.33 0.8,0.47 0.39,0.1 0.67,0.19 1.04,0.3l38.26 10.75c0.35,0.1 0.68,0.2 0.99,0.28 0.23,0.06 0.88,0.27 1.07,0.27l-0.01 -0.02z"/>
  <polygon class="fil1" points="50.37,9.77 82.07,9.88 90.71,20.65 84.26,94.7 50.33,104.53 "/>
  <path class="fil2" d="M17.86 21.88c20.53,-2.63 37.12,-3.18 56.21,-0.44l7.3 12.57 -5.66 50.57 -25.47 8.06 -26.2 -7.06 -5.04 -51.93 -1.14 -11.77 -0 -0zm17.83 53.23l13.47 3.42 14.7 -2.84 4.18 -41.63c-11.9,-2.05 -24.26,-1.87 -36.99,0.21l4.64 40.84 0 0z"/>
 </g>
</svg>
